<svg width="20" height="20" viewBox="0 0 20 20" fill="none" xmlns="http://www.w3.org/2000/svg">
<rect width="20" height="20" rx="10" fill="#F53838"/>
<path fill-rule="evenodd" clip-rule="evenodd" d="M5.27909 13.3718C4.90664 13.7443 4.90664 14.3481 5.27909 14.7206C5.65154 15.093 6.2554 15.093 6.62784 14.7206L9.99979 11.3486L13.3719 14.7207C13.7443 15.0932 14.3482 15.0932 14.7206 14.7207C15.0931 14.3483 15.0931 13.7444 14.7206 13.372L11.3485 9.99988L14.7203 6.62808C15.0928 6.25564 15.0928 5.65178 14.7203 5.27933C14.3479 4.90689 13.744 4.90689 13.3716 5.27934L9.99979 8.65113L6.62812 5.27946C6.25567 4.90701 5.65181 4.90701 5.27937 5.27946C4.90692 5.65191 4.90692 6.25576 5.27937 6.62821L8.65104 9.99988L5.27909 13.3718Z" fill="white"/>
</svg>
