<svg width="18" height="18" viewBox="0 0 18 18" fill="none" xmlns="http://www.w3.org/2000/svg">
<path fill-rule="evenodd" clip-rule="evenodd" d="M0.502559 15.0693C-0.167845 15.7397 -0.167845 16.8266 0.502559 17.497C1.17296 18.1674 2.2599 18.1674 2.93031 17.497L8.99994 11.4274L15.0699 17.4973C15.7403 18.1677 16.8272 18.1677 17.4976 17.4973C18.168 16.8269 18.168 15.74 17.4976 15.0696L11.4277 8.99966L17.4968 2.93055C18.1672 2.26015 18.1672 1.17321 17.4968 0.502803C16.8264 -0.167601 15.7395 -0.167601 15.0691 0.502803L8.99994 6.57192L2.93113 0.503111C2.26072 -0.167293 1.17378 -0.167293 0.503378 0.503111C-0.167027 1.17351 -0.167027 2.26045 0.503377 2.93086L6.57219 8.99966L0.502559 15.0693Z" fill="#4F5665"/>
</svg>
