<svg width="33" height="33" viewBox="0 0 33 33" fill="none" xmlns="http://www.w3.org/2000/svg">
<circle cx="16.5" cy="16.5" r="16.5" fill="white"/>
<rect x="9" y="8" width="15.9995" height="15.9998" fill="white" fill-opacity="0.01"/>
<path d="M12.5463 17.6682L11.9894 19.7473L9.95387 19.7904C9.34554 18.6621 9.00049 17.3711 9.00049 15.9993C9.00049 14.6727 9.3231 13.4217 9.89496 12.3202H9.8954L11.7076 12.6524L12.5014 14.4538C12.3353 14.9382 12.2447 15.4582 12.2447 15.9993C12.2448 16.5865 12.3512 17.1491 12.5463 17.6682Z" fill="#FBBB00"/>
<path d="M24.8604 14.5051C24.9523 14.9891 25.0002 15.4888 25.0002 15.9996C25.0002 16.5723 24.9399 17.131 24.8252 17.6699C24.4358 19.5037 23.4182 21.105 22.0086 22.2382L22.0082 22.2378L19.7256 22.1213L19.4026 20.1046C20.3379 19.5561 21.0689 18.6976 21.454 17.6699H17.1763V14.5051H21.5164H24.8604Z" fill="#518EF8"/>
<path d="M22.0077 22.2383L22.0082 22.2388C20.6373 23.3407 18.8957 24.0001 17 24.0001C13.9535 24.0001 11.3048 22.2972 9.95361 19.7913L12.5461 17.6692C13.2216 19.4722 14.9609 20.7557 17 20.7557C17.8764 20.7557 18.6975 20.5188 19.4021 20.1052L22.0077 22.2383Z" fill="#28B446"/>
<path d="M22.1068 9.84172L19.5152 11.9634C18.786 11.5076 17.924 11.2443 17.0005 11.2443C14.9153 11.2443 13.1435 12.5867 12.5018 14.4544L9.8957 12.3208H9.89526C11.2267 9.75382 13.9088 8 17.0005 8C18.9416 8 20.7213 8.69143 22.1068 9.84172Z" fill="#F14336"/>
</svg>
